<?xml version="1.0" standalone="no"?>
<!DOCTYPE svg PUBLIC "-//W3C//DTD SVG 1.1//EN" "http://www.w3.org/Graphics/SVG/1.1/DTD/svg11.dtd" >
<svg xmlns="http://www.w3.org/2000/svg">
<metadata>Generated by IcoMoon</metadata>
<defs>
<font id="comicon" horiz-adv-x="1024">
<font-face units-per-em="1024" ascent="960" descent="-64" />
<missing-glyph horiz-adv-x="1024" />
<glyph unicode="&#x20;" horiz-adv-x="512" d="" />
<glyph unicode="&#xe900;" glyph-name="search" d="M334.793 766.973c-112.231-50.209-180.161-168.347-165.394-289.439 20.674-191.975 225.939-308.636 401.67-230.37l72.36 32.488 93.034-93.034c72.36-72.36 95.987-88.604 110.755-73.836s-1.477 38.395-75.313 112.231l-93.034 93.034 31.011 57.592c33.965 63.499 41.348 169.824 14.767 237.753-54.639 144.719-245.137 220.033-389.856 153.58zM557.779 722.671c91.557-41.348 131.429-107.801 131.429-215.602 0-109.278-41.348-174.254-137.336-217.079-91.557-41.348-178.684-26.581-255.474 42.825-126.999 115.185-101.894 311.59 50.209 386.903 76.79 38.395 132.906 38.395 211.172 2.953z" />
<glyph unicode="&#xe901;" glyph-name="user" d="M915.377 618.536c-22.051 52.174-53.611 99.026-93.805 139.252-40.196 40.228-87.012 71.816-139.148 93.886-53.994 22.856-111.333 34.445-170.424 34.445s-116.429-11.589-170.424-34.445c-52.136-22.070-98.952-53.657-139.148-93.886-40.195-40.227-71.756-87.078-93.805-139.252-22.834-54.030-34.412-111.407-34.412-170.537s11.578-116.506 34.412-170.536c22.050-52.174 53.61-99.024 93.805-139.252s87.012-71.815 139.148-93.886c53.994-22.856 111.332-34.445 170.423-34.445s116.429 11.589 170.424 34.445c52.136 22.070 98.952 53.657 139.148 93.886 40.194 40.227 71.756 87.078 93.805 139.252 22.835 54.030 34.412 111.407 34.412 170.536s-11.577 116.507-34.411 170.537zM861.502 300.231c-19.104-45.204-46.459-85.805-81.304-120.68-3.347-3.35-6.763-6.608-10.215-9.819-25.215 55.121-123.402 165.325-258.993 165.325-141.206 0-235.256-106.14-257.987-164.381-3.105 2.909-6.182 5.853-9.202 8.875-34.846 34.874-62.2 75.476-81.304 120.68-19.773 46.786-29.799 96.502-29.799 147.768s10.026 100.982 29.799 147.769c19.104 45.204 46.459 85.806 81.304 120.681 34.844 34.873 75.411 62.247 120.574 81.366 46.741 19.786 96.408 29.818 147.624 29.818s100.883-10.032 147.624-29.818c45.163-19.118 85.73-46.493 120.574-81.366 34.846-34.874 62.2-75.477 81.304-120.681 19.773-46.787 29.799-96.502 29.799-147.769 0.002-51.265-10.024-100.982-29.798-147.768zM512.489 655.090c-75.362 0-145.459-64.882-145.459-144.928 0-80.033 70.097-144.93 145.459-144.93 75.356 0 142.454 64.897 142.454 144.93 0 80.046-67.098 144.928-142.454 144.928z" />
<glyph unicode="&#xe902;" glyph-name="people" d="M538.333 390.53c66.045 38.8 110.318 110.683 110.318 192.783 0 123.454-100.101 223.555-223.555 223.555s-223.555-100.101-223.555-223.555c0-82.1 44.273-153.862 110.318-192.783-136.468-46.706-234.502-173.322-234.502-303.952h72.005c0 123.454 123.454 248.368 275.734 248.368s275.734-124.914 275.734-248.368h71.883c0.122 130.63-97.912 257.247-234.38 303.952v0zM425.096 434.317c-82.343 0-148.996 66.775-148.996 148.996 0 82.343 66.775 148.996 148.996 148.996 82.343 0 148.996-66.775 148.996-148.996s-66.653-148.996-148.996-148.996v0zM946.644 86.578c0 0-4.987 238.394-148.996 322.927 0 0-19.461 3.892-11.676 11.555 28.461 27.975 88.668 106.912 36.489 236.813-29.921 74.559-129.171 109.345-173.93 99.371l24.812-74.559c0 0 99.371-2.189 99.371-124.184 0-74.559-44.76-119.197-124.184-148.996 0 0 228.542-44.76 223.555-322.927h74.559z" />
<glyph unicode="&#xe903;" glyph-name="arrow-left" d="M775.2 901.599l-452.541-453.906 451.45-452.78c13.338-13.338 13.338-35 0-48.338-13.304-13.372-34.897-13.372-48.236 0l-476.557 477.989c-13.338 13.372-13.338 35 0 48.372 1.808 1.808 4.025 2.729 6.072 4.059l471.576 472.975c13.304 13.372 34.897 13.372 48.236 0s13.304-35.034 0-48.372z" />
<glyph unicode="&#xe904;" glyph-name="arrow-right" d="M249.327 901.599l452.507-453.906-451.484-452.78c-13.304-13.338-13.304-35 0-48.338 13.338-13.372 34.932-13.372 48.236 0l476.591 477.989c13.338 13.372 13.338 35 0 48.372-1.808 1.808-4.025 2.729-6.072 4.059l-471.576 472.975c-13.304 13.372-34.897 13.372-48.236 0s-13.304-35.034 0.034-48.372z" />
<glyph unicode="&#xe905;" glyph-name="arrow-down" d="M495.507 102.564c3.987-3.83 9.395-5.972 15.036-5.972 5.621 0 11.030 2.142 15.016 5.972zM525.56 102.564l403.751 386.714c17.759 16.966 16.654 45.28-1.052 62.213-17.673 16.899-46.267 17.039-64.026 0.072l-353.71-338.406-353.673 338.407c-17.774 16.968-46.371 16.827-64.041-0.072-17.706-16.933-18.814-45.247-1.055-62.213l403.754-386.714zM495.251 402.596c3.987-3.83 9.395-5.972 15.036-5.972 5.621 0 11.030 2.142 15.016 5.972zM525.304 402.596l403.751 386.714c17.759 16.966 16.654 45.28-1.052 62.213-17.673 16.899-46.267 17.039-64.026 0.072l-353.71-338.406-353.673 338.407c-17.774 16.968-46.371 16.827-64.041-0.072-17.706-16.933-18.814-45.247-1.055-62.213l403.754-386.714z" />
<glyph unicode="&#xe906;" glyph-name="more" d="M896.081 512.244h-320.124v319.602h-0.013c0.001 0.175 0.013 0.347 0.013 0.523 0 35.322-28.634 63.957-63.957 63.957s-63.957-28.634-63.957-63.957c0-0.411 0.023-0.817 0.031-1.226v-318.899l-319.633-0.013c-0.175 0.001-0.348 0.013-0.524 0.013-35.322 0-63.957-28.634-63.957-63.957s28.634-63.957 63.957-63.957c0.398 0 0.79 0.023 1.186 0.030h318.97v-318.929c-0.008-0.408-0.031-0.815-0.031-1.225 0-35.324 28.634-63.957 63.957-63.957s63.957 28.633 63.957 63.957v320.155h318.938c0.396-0.007 0.789-0.030 1.186-0.030 35.322 0 63.957 28.633 63.957 63.957 0.001 35.321-28.634 63.956-63.956 63.956z" />
<glyph unicode="&#xe907;" glyph-name="new" d="M884.956 699.92h-749.516c-39.718 0-71.915-32.197-71.915-71.915v-348.389c0-39.718 32.197-71.915 71.915-71.915h749.516c39.718 0 71.915 32.197 71.915 71.915v348.389c0.001 39.718-32.197 71.915-71.915 71.915zM321.789 340.56h-51.295l-97.329 188.95v-187.927h-30.699v223.431h45.429l100.156-193.755h3.040v194.778h30.699v-225.477zM525.223 469.543l0.018-30.699-124.983-0.073c0.023-2.29 0.047-4.418 0.074-6.359l0.001-0.164c0.128-39.409 12.628-59.392 37.15-59.392h87.747v-30.699h-87.747c-19.334 0-35.804 7.284-47.629 21.064-13.306 15.506-20.11 38.669-20.221 68.843-0.161 11.556-0.238 29.040-0.238 53.446 0 50.776 35.287 74.841 68.31 80.431l1.431 0.209c13.673 1.381 78.926 0.46 86.321 0.352l-0.453-30.696c-27.86 0.412-72.247 0.703-82.299-0.155-12.917-2.213-42.609-11.52-42.609-50.141 0-5.734 0.004-11.067 0.013-16.041l125.115 0.074zM813.157 340.56h-45.618l-45.577 179.697-50.721-179.697h-46.98l-65.441 225.359h33.475l57.878-184.426 1.928 1.023 51.041 184.072h38.74l49.151-193.785 60.022 193.225h32.325l-70.224-225.468z" />
<glyph unicode="&#xe908;" glyph-name="recmmond" d="M861.643 516.566c-15.821 25.463-43.223 41.336-71.36 42.176l-174.417 0.84c11.632 33.585 17.501 68.581 17.501 104.001 0 17.604-1.52 35.624-4.873 55.063l-3.246 14.043c-9.274 40.236-44.59 68.425-85.978 68.425-48.675 0-88.284-39.609-88.284-88.336 0-2.83 0.104-5.605 0.367-7.911-2.41-86.398-106.412-175.569-141.776-175.569l-129.623-0.052c-16.921 0-30.699-13.835-30.699-30.755l-0.316-362.561c0-17.184 14.878-29.709 33.534-30.232l112.327 0.212 4.297-0.788 3.774 0.524 427.53-0.156c15.033 1.047 29.548 5.708 42.123 13.727 13.622 8.749 24.623 21.062 29.6 31.906l5.24 8.698c29.444 70.101 65.387 284.863 66.855 293.925l0.575 8.698c1.467 19.283-3.089 37.986-13.151 54.123zM822.557 462.339c-0.363-2.095-36.411-217.696-61.874-279.046l-3.301-5.24c-2.986-6.024-7.547-11.109-13.099-14.67-5.081-3.246-11.108-5.185-15.665-5.5l-404.686 0.156v321.434c69.105 13.464 176.828 119.091 179.762 227.962l-0.316 5.345c0 19.806 16.085 35.944 35.891 35.944 16.817 0 31.171-11.424 34.945-27.822l2.934-12.471c2.566-15.034 3.825-30.072 3.825-44.742 0-29.76-4.976-59.152-14.826-87.289l-24.104-69.105 238.602-0.052 5.657-0.575c12.679-0.472 24.207-7.127 30.859-17.817 4.141-6.656 6.028-14.406 5.396-26.51z" />
<glyph unicode="&#xe909;" glyph-name="hat" d="M986.016 606.718l-470.249 202.244c-2.883 1.242-5.938 1.863-8.972 1.863-3.045 0-6.098-0.621-8.99-1.863l-470.25-202.244c-9.915-4.244-16.477-15.071-16.477-27.144 0-12.093 6.563-22.901 16.477-27.168l470.25-202.243c2.897-1.268 5.945-1.888 8.99-1.888 3.034 0 6.098 0.62 8.972 1.888l365.618 157.239v-160.858c-19.596-10.384-33.218-32.955-33.218-59.204 0-26.254 13.623-48.83 33.218-59.209v-56.112h48.154v56.108c19.606 10.377 33.234 32.959 33.234 59.213 0 26.249-13.629 48.831-33.234 59.208v181.565l56.485 24.295c9.907 4.264 16.477 15.073 16.477 27.166 0 12.073-6.57 22.9-16.485 27.144zM506.796 309.572c-7.202 0-14.277 1.481-21.012 4.374l-293.143 126.086v-174.093c0-142.593 213.791-185.385 280.635-185.385h66.999c50.076 0 280.657 42.792 280.657 185.385v174.093l-293.165-126.086c-6.71-2.893-13.766-4.374-20.971-4.374z" />
<glyph unicode="&#xe90a;" glyph-name="mail" d="M1023 201.631c0-22.313-6.324-43.009-16.297-61.264l-321.922 360.15 318.349 278.606c12.446-19.664 19.87-42.731 19.87-67.656v-509.836zM513.199 435.097l443.038 387.688c-18.153 9.9-38.643 16.019-60.715 16.019h-764.65c-22.105 0-42.595-6.119-60.678-16.019l443.005-387.688zM636.686 458.543l-102.586-89.765c-5.912-5.224-13.372-7.802-20.9-7.802-7.461 0-14.99 2.578-21.005 7.802l-102.553 89.765-326.014-364.794c19.527-12.309 42.458-19.563 67.245-19.563h764.65c24.755 0 47.718 7.322 67.245 19.563l-326.082 364.794zM23.303 779.123c-12.412-19.664-19.803-42.731-19.803-67.656v-509.699c0-22.382 6.292-43.009 16.331-61.332l321.921 360.219-318.449 278.468z" />
<glyph unicode="&#xe90b;" glyph-name="phone" d="M853.333 298.667c-53.333 0-104.533 8.533-152.32 24.32-3.947 1.302-8.49 2.053-13.208 2.053-11.79 0-22.485-4.688-30.323-12.303l-93.856-93.857c-121.681 62.791-218.383 159.493-279.489 277.593l92.182 97.874c7.872 7.479 12.768 18.025 12.768 29.715 0 4.633-0.769 9.087-2.187 13.24-15.334 44.969-24.235 97.104-24.235 151.318 0 0.251 0 0.502 0.001 0.753 0 23.427-19.2 42.627-42.667 42.627h-149.333c-23.467 0-42.667-19.2-42.667-42.667 0-400.64 324.693-725.333 725.333-725.333 23.467 0 42.667 19.2 42.667 42.667v149.333c0 23.467-19.2 42.667-42.667 42.667zM810.667 448h85.333c0 212.077-171.923 384-384 384v-85.333c165.12 0 298.667-133.547 298.667-298.667zM640 448h85.333c0 117.76-95.573 213.333-213.333 213.333v-85.333c70.827 0 128-57.173 128-128z" />
<glyph unicode="&#xe90c;" glyph-name="message" d="M874.495 865.959h-725.014c-42.634 0-85.294-43.991-85.294-87.983v-483.961c0-43.989 42.66-87.981 85.294-87.981h127.95v-175.993l170.581 175.993h426.483c42.659 0 85.318 43.991 85.318 87.981v483.961c0.002 43.992-42.658 87.983-85.318 87.983zM298.759 470.009c-35.322 0-63.989 29.553-63.989 65.974 0 36.448 28.667 66.001 63.989 66.001 35.325 0 63.962-29.553 63.962-66.001 0-36.422-28.637-65.974-63.962-65.974zM512.001 470.009c-35.322 0-63.989 29.553-63.989 65.974 0 36.448 28.667 66.001 63.989 66.001 35.325 0 63.965-29.553 63.965-66.001-0.002-36.422-28.64-65.974-63.965-65.974zM725.244 470.009c-35.322 0-63.962 29.553-63.962 65.974 0 36.448 28.638 66.001 63.962 66.001 35.325 0 63.962-29.553 63.962-66.001-0.001-36.422-28.637-65.974-63.962-65.974z" />
<glyph unicode="&#xe90d;" glyph-name="edit" d="M690.087 781.913l-356.174-356.174 155.826-155.826 356.174 356.174-155.826 155.826zM734.609 826.435l155.826-155.826 57.567 57.567c17.386 17.386 17.386 45.568 0 62.954l-92.872 92.872c-17.386 17.386-45.568 17.386-62.954 0l-57.567-57.567zM289.391 381.217l-44.522-200.348 200.348 44.522-155.826 155.826zM823.652 448v-356.174h-667.826v667.826h356.174l89.043 89.043h-489.739c-22.261 0-42.785-22.261-42.785-44.522h-1.736v-752.529c0-26.847 25.333-48.863 52.269-48.863h744.849c26.936 0 48.796 21.749 48.796 48.863v485.398l-89.043-89.043z" />
<glyph unicode="&#xe90e;" glyph-name="qq" d="M252.8 558.4c0-12.8-11.2-3.2-20.8-27.2-4.8-11.2 1.6-17.6 0-57.6 0-11.2-48-60.8-67.2-112s-20.8-104 8-124.8c14.4-11.2 28.8 8 40 27.2 9.6 17.6 17.6 35.2 19.2 28.8s3.2-11.2 6.4-17.6c9.6-24 24-52.8 46.4-78.4 4.8-4.8-27.2-14.4-46.4-48s4.8-92.8 100.8-92.8c123.2 0 152 43.2 153.6 43.2h19.2c11.2 0 6.4-1.6 17.6 0 3.2 0 17.6-11.2 40-22.4 27.2-12.8 64-25.6 108.8-20.8 142.4 14.4 120 62.4 108.8 92.8-11.2 32-52.8 46.4-51.2 48 33.6 36.8 40 60.8 51.2 94.4 1.6 6.4 11.2-11.2 22.4-28.8 12.8-19.2 27.2-38.4 40-27.2 11.2 9.6 32 46.4 11.2 124.8s-62.4 97.6-60.8 112c1.6 30.4 0 52.8 0 57.6-8 27.2-24 20.8-24 27.2 0 156.8-118.4 283.2-262.4 283.2-144 1.6-260.8-124.8-260.8-281.6z" />
<glyph unicode="&#xe90f;" glyph-name="wechat" d="M697.6 606.4c11.2 0 22.4-1.6 33.6-1.6-30.4 139.2-180.8 243.2-352 243.2-190.4 0-347.2-129.6-347.2-296 0-96 52.8-174.4 139.2-235.2l-35.2-104 121.6 60.8c43.2-8 78.4-17.6 121.6-17.6 11.2 0 22.4 0 32 1.6-6.4 24-11.2 48-11.2 73.6 1.6 152 131.2 275.2 297.6 275.2zM510.4 700.8c25.6 0 43.2-17.6 43.2-43.2s-17.6-43.2-43.2-43.2-52.8 17.6-52.8 43.2 25.6 43.2 52.8 43.2zM267.2 612.8c-25.6 0-52.8 17.6-52.8 43.2s25.6 43.2 52.8 43.2c25.6 0 43.2-17.6 43.2-43.2s-17.6-43.2-43.2-43.2zM1014.4 334.4c0 139.2-139.2 252.8-296 252.8-164.8 0-296-113.6-296-252.8s129.6-252.8 296-252.8c35.2 0 68.8 8 104 17.6l96-52.8-25.6 86.4c68.8 54.4 121.6 123.2 121.6 201.6zM622.4 379.2c-17.6 0-35.2 17.6-35.2 35.2s17.6 35.2 35.2 35.2c25.6 0 43.2-17.6 43.2-35.2 1.6-19.2-16-35.2-43.2-35.2zM814.4 379.2c-17.6 0-35.2 17.6-35.2 35.2s17.6 35.2 35.2 35.2c25.6 0 43.2-17.6 43.2-35.2 0-19.2-17.6-35.2-43.2-35.2z" />
<glyph unicode="&#xe910;" glyph-name="xina" d="M758.352 458.832c-39.816 7.72-20.43 29.144-20.43 29.144s38.952 64.271-7.73 110.973c-57.886 57.856-198.485-7.369-198.485-7.369-53.71-16.685-39.454 7.63-31.844 48.901 0 48.67-16.685 131.022-159.734 82.352-142.898-48.891-265.638-220.23-265.638-220.23-85.323-113.875-73.989-201.879-73.989-201.879 21.313-194.279 227.74-247.627 388.307-260.257 168.9-13.232 396.91 58.227 466.010 205.091 69.14 147.085-56.491 205.282-96.467 213.273zM401.318 95.232c-167.725-7.811-303.275 76.288-303.275 188.165 0 112.058 135.549 201.879 303.275 209.619 167.765 7.75 303.596-61.42 303.596-173.197 0-111.877-135.831-216.927-303.596-224.587zM367.837 419.238c-168.639-19.737-149.163-177.724-149.163-177.724s-1.737-50.035 45.217-75.505c98.675-53.439 200.282-21.102 251.643 45.207 51.351 66.319 21.243 227.599-147.697 208.023zM325.271 197.491c-31.443-3.694-56.842 14.487-56.842 40.809 0 26.253 22.538 53.71 54.041 56.983 36.181 3.464 59.743-17.378 59.743-43.731 0-26.232-25.53-50.467-56.942-54.061zM424.719 282.172c-10.672-7.951-23.773-6.857-29.395 2.701-5.893 9.336-3.674 24.305 7.088 32.136 12.489 9.306 25.49 6.606 31.132-2.701 5.672-9.547 1.606-23.893-8.824-32.136zM840.513 527.219c13.573 0 25.158 10.059 27.076 23.191 0.231 0.984 0.371 1.857 0.371 2.952 20.6 185.173-151.763 153.319-151.763 153.319-15.31 0-27.558-12.388-27.558-27.849 0-15.169 12.248-27.528 27.558-27.528 123.814 27.287 96.487-96.477 96.487-96.477 0-15.34 12.449-27.608 27.829-27.608zM820.425 850.492c-59.613 13.965-120.882 1.928-138.059-1.385-1.315-0.11-2.58-1.325-3.805-1.576-0.572-0.131-0.934-0.723-0.934-0.723-16.966-4.809-29.335-20.48-29.335-39.002 0-22.056 17.88-40.217 40.217-40.217 0 0 21.675 2.911 36.402 8.654 14.587 5.883 137.989 4.397 199.329-98.575 33.421-75.133 14.687-125.41 12.358-133.501 0 0-7.961-19.516-7.961-38.751 0-22.177 17.87-36.101 40.026-36.101 18.542 0 34.093 2.49 38.661 33.842h0.241c65.847 219.387-80.504 322.46-187.141 347.337z" />
<glyph unicode="&#xe911;" glyph-name="line" d="M480.397 831.388h63.205v-766.776h-63.205v766.776z" />
<glyph unicode="&#xe912;" glyph-name="arrowup" horiz-adv-x="1026" d="M1024 133.576l-512.722 640.858-512.722-640.948h1025.445z" />
<glyph unicode="&#xe913;" glyph-name="robot" d="M510.286 821.171c-155.983 0-282.403-123.767-282.403-276.484 0-152.696 126.42-276.481 282.403-276.481 155.985 0 282.405 123.785 282.405 276.481 0 152.717-126.42 276.484-282.405 276.484zM184.191 438.561v255.25c-3.577 0-7.118-0.146-10.621-0.423 57.871 125.631 186.763 213.123 336.756 213.123s278.888-87.492 336.757-213.124c-3.503 0.278-7.044 0.424-10.62 0.424v-255.251c72.029 0 130.462 57.148 130.462 127.624 0 47.864-26.953 89.569-66.808 111.413-56.084 157.976-209.191 271.441-389.791 271.441-180.593 0-333.696-113.458-389.784-271.428-39.868-21.84-66.813-63.554-66.813-111.426 0-70.477 58.39-127.624 130.462-127.624zM792.095 292.23c-73.795-67.425-172.863-108.712-281.809-108.712-108.743 0-207.648 41.135-281.398 108.338-131.991-66.493-218.648-184.846-218.648-345.623h1003.52c0 161.076-88.278 279.57-221.665 345.996z" />
<glyph unicode="&#xe914;" glyph-name="qrcode" d="M167.5 853.286c101.652 0 203.305 0 304.958 0 31.012-3.071 23.537-57.657 23.537-93.121 0-63.7 0-105.684 0-168.846 0-36.697 6.911-81.674-17.397-92.098-15.83-6.789-58.314-2.047-78.798-2.047-56.236 0-101.948 0-161.689 0-37.377 0-88.413-8.921-94.148 23.536 0 103.013 0 206.025 0 309.038 4.179 11.511 11.531 19.85 23.537 23.536zM209.457 783.701c0-73.337 0-146.674 0-220.011 73.34 0 146.68 0 220.020 0 0 74.361 0 148.72 0 223.081-72.999 0-145.998 0-218.997 0-1.192-0.172-1.111-1.618-1.023-3.070zM576.839 853.286c101.652 0 203.305 0 304.958 0 12.44-4.615 20.988-13.124 23.537-27.629 0-100.284 0-200.569 0-300.852-2.791-12.502-9.319-23.181-21.49-26.606-19.892-5.596-52.944-1.023-76.751-1.023-56.092 0-102.084 0-156.572 0-23.612 0-58.605-4.973-77.774 1.023-27.060 8.466-19.444 61.288-19.444 98.237 0 49.082 0 106.374 0 157.589 0 42.663-9.365 93.3 23.537 99.261zM618.796 783.701c0-73.337 0-146.674 0-220.011 73.34 0 146.68 0 220.020 0 0 74.361 0 148.72 0 223.081-72.999 0-145.998 0-218.997 0-1.192-0.172-1.111-1.618-1.023-3.070zM309.745 719.232c30.642 5.783 54.74-14.921 55.261-42.979 0.687-37.001-37.106-57.327-66.518-41.956-33.649 17.585-31.434 76.878 11.257 84.934zM719.084 719.232c72.178 13.484 70.794-100.818 0-89.028-45.053 7.503-46.507 80.339 0 89.028zM470.411 81.713c-100.629 0-201.258 0-301.888 0-12.533 3.841-20.999 11.748-24.56 24.559 0 102.671 0 205.344 0 308.015 2.981 9.013 9.862 19.529 20.467 22.513 20.032 5.636 52.754 1.023 76.751 1.023 55.154 0 105.117 0 156.572 0 23.14 0 56.816 5.165 77.774-1.023 28.354-8.371 20.467-60.335 20.467-97.214 0-56.691 0-105.051 0-162.706 0-39.803 8.571-91.613-25.584-95.167zM209.457 368.238c0-73.338 0-146.674 0-220.011 73.34 0 146.68 0 220.020 0 0 74.361 0 148.72 0 223.081-72.999 0-145.998 0-218.997 0-1.192-0.172-1.111-1.618-1.023-3.070zM905.334 410.194c0-28.653 0-57.305 0-85.958-2.387-28.994-0.342-62.421-1.023-93.121-72.658 0-145.315 0-217.973 0 0 16.714 0 33.428 0 50.142-20.468 2.386-45.367 0.342-67.541 1.023-2.387-64.81-0.341-134.052-1.023-200.568-13.304 0-26.607 0-39.911 0-34.316 6.878-24.56 58.368-24.56 99.261 0 57.040 0 103.972 0 158.612 0 23.849-4.827 59.602 1.023 78.795 6.98 22.897 37.251 19.443 67.541 19.443 51.208 0 96.83 0 148.385 0 0-45.366 0-90.733 0-136.1 22.854 0 45.71 0 68.564 0 0.682 45.025-1.364 92.779 1.023 136.1 32.994 1.952 63.556 1.472 65.494-27.629zM314.862 304.793c32.719 3.621 59.767-27.823 47.074-62.422-17.593-47.957-101.714-29.933-85.961 30.699 4.354 16.76 16.931 29.292 38.887 31.722zM760.018 81.713c-24.56 0-49.121 0-73.681 0 0.682 26.266-1.363 55.257 1.023 79.818 24.22 0 48.438 0 72.658 0 0-26.606 0-53.212 0-79.818zM905.334 161.531c0-17.396 0-34.792 0-52.189-2.845-14.551-11.354-23.439-24.56-27.629-17.397 0-34.794 0-52.191 0 0.682 26.266-1.363 55.257 1.023 79.818 25.243 0 50.485 0 75.728 0z" />
</font>
</defs>
</svg>
